<svg width="31" height="30" viewBox="0 0 31 30" fill="none" xmlns="http://www.w3.org/2000/svg">
<path fill-rule="evenodd" clip-rule="evenodd" d="M15.5 0C6.76761 0 0 6.19022 0 14.5505C0 18.9238 1.85252 22.7025 4.86831 25.3132C5.12093 25.5335 5.27374 25.8384 5.28622 26.1673L5.37042 28.8354C5.39849 29.6865 6.30604 30.2388 7.11066 29.8978L10.1857 28.5849C10.4477 28.4732 10.7377 28.4521 11.0122 28.5245C12.4249 28.9018 13.9313 29.101 15.5 29.101C24.2324 29.101 31 22.9108 31 14.5505C31 6.19022 24.2324 0 15.5 0Z" fill="white"/>
<path fill-rule="evenodd" clip-rule="evenodd" d="M6.19108 18.9552L10.7448 11.9749C11.4684 10.8658 13.0217 10.5885 14.1071 11.3752L17.7282 14.0003C18.062 14.2414 18.5173 14.2384 18.8479 13.9973L23.7385 10.4107C24.3904 9.9315 25.245 10.688 24.8052 11.3571L20.2546 18.3343C19.531 19.4434 17.9777 19.7207 16.8923 18.9341L13.2712 16.309C12.9375 16.0679 12.4821 16.0709 12.1515 16.312L7.25777 19.9016C6.6059 20.3808 5.7513 19.6243 6.19108 18.9552Z" fill="#2D67F6"/>
</svg>
